<?xml version="1.0" encoding="utf-8"?>
<!-- Generator: Adobe Illustrator 19.2.1, SVG Export Plug-In . SVG Version: 6.00 Build 0)  -->
<svg version="1.1" id="Layer_2" xmlns="http://www.w3.org/2000/svg" xmlns:xlink="http://www.w3.org/1999/xlink" x="0px" y="0px"
	 viewBox="0 0 300 300" style="enable-background:new 0 0 300 300;" xml:space="preserve">
<style type="text/css">
	.st0{fill:none;stroke:#000000;stroke-miterlimit:10;}
</style>
<g id="g100_1_">
	<g>
		<path class="st0" d="M184.3,218.4c0-47-38.1-85.2-85.2-85.2c-47,0-85.2,38.1-85.2,85.2c0,37.5,24.2,69.3,57.9,80.7
			c-4.8-23.2-16.4-76.9-19.1-92.3c-2.9-16.5-0.5-36.4,28.3-40.8c-7.4-2.2-17.6-2.7-24.4-2c2.9-3.9,7.6-5.6,9-6.2
			c-2.9-1.2-7.4-3.3-8.6-3.4c20.4-8.5,36.8,5.2,42.7,11.9c26.7,0.9,30.9,36.9,27.4,49.3c11.5,1.9,32.4-14,36.1-5.8
			c3.7,8.2-18.3,15.2-29.4,17.1c-10.4,1.8-19.9-1.8-23.3,3.2c-2.7,4-0.5,9.4,11.6,10.5c16.4,1.5,32.1-7.4,33.8-2.7
			c1.7,4.7-14.1,9.8-23.7,10.8c-11.9,1.2-29.3-5.2-31.9-8.4c-2.7,6.1,1.9,24.3,7.1,36.2c4.8-3.4,13.4-9.3,15.9-8.7
			c3.4,0.8,4.2,25.3,1.1,26.5c-1.3,0.5-5.1-0.5-9.1-1.8c1.4,2.6,2.9,5.5,4.4,8.5C156.8,291.8,184.3,258.3,184.3,218.4z"/>
	</g>
</g>
</svg>
